<?xml version="1.0" encoding="utf-8"?>
<!-- Generator: Adobe Illustrator 24.0.3, SVG Export Plug-In . SVG Version: 6.00 Build 0)  -->
<svg version="1.1" id="Layer_1" xmlns="http://www.w3.org/2000/svg" xmlns:xlink="http://www.w3.org/1999/xlink" x="0px" y="0px"
	 viewBox="0 0 16 32" style="enable-background:new 0 0 16 32;" xml:space="preserve">
<style type="text/css">
	.st0{fill:#9FA0A0;}
</style>
<g id="New-Rebrand">
	<g id="Competition-Schedule_NoBroadcaster" transform="translate(-525.000000, -971.000000)">
		<g id="Page_x5B_60v_x5D_" transform="translate(1.000000, 190.000000)">
			<g id="Right_x2F_Left-content" transform="translate(109.000000, 0.000000)">
				<g id="Left-column" transform="translate(1.000000, 76.000000)">
					<g id="ATOS-_x5B_60v_x5D_" transform="translate(0.000000, 155.000000)">
						<g id="Group-5" transform="translate(0.000000, 162.000000)">
							<g id="Group-5-_x5B_0v_x5D_" transform="translate(0.000000, 70.000000)">
								<g id="Group" transform="translate(0.000000, 307.000000)">
									<g id="Group-7" transform="translate(321.000000, 11.000000)">
										<g id="competition-day" transform="translate(93.000000, 0.000000)">
											<path id="Medals-Copy" class="st0" d="M2.8,8.2l1.5,1.5V3H2.8V8.2z M11.7,9.7l1.5-1.5V3h-1.5V9.7z M5.5,10.9L6.6,12h2.9
												l1.1-1.1V3H5.5V10.9z M7.4,14.6h0.3c0.1,0,0.2,0,0.3,0c0.1,0,0.2,0,0.3,0h0.3v-1.2H7.5v1.2H7.4z M8,16.1
												c-3.6,0-6.5,2.9-6.5,6.5S4.4,29,8,29s6.5-2.9,6.5-6.5S11.6,16.1,8,16.1L8,16.1z M-0.1,22.6c0-3.5,2.4-6.6,5.8-7.6H6v-1.5
												l-0.1-0.1c-0.1,0-0.1-0.1-0.1-0.1L1.5,9C1.4,8.9,1.3,8.7,1.3,8.5V3.3c0-0.2,0-0.4,0-0.7s0.2-0.5,0.3-0.7
												c0.2-0.2,0.6-0.3,0.7-0.4c0.1,0,0.2,0,0.3,0h10.6c0.2,0,0.3,0,0.4,0c0.2,0,0.5,0.1,0.7,0.4c0.2,0.2,0.3,0.4,0.3,0.7
												c0,0.2,0,0.4,0,0.7v5.2c0,0.2-0.1,0.4-0.2,0.5l-4.2,4.3L10,13.4l-0.1,0.1V15h0.2c3.4,1,5.8,4.1,5.8,7.6
												c0,4.4-3.6,7.9-8.1,7.9C3.6,30.5-0.1,26.9-0.1,22.6z"/>
										</g>
									</g>
								</g>
							</g>
						</g>
					</g>
				</g>
			</g>
		</g>
	</g>
</g>
</svg>
